<svg width="24" height="25" viewBox="0 0 24 25" fill="none" xmlns="http://www.w3.org/2000/svg">
<path d="M12 21C12.6493 21 13.364 20.9831 14.0982 20.9555C14.3558 20.9458 14.4845 20.941 14.7053 20.9186C17.983 20.5867 20.7773 17.6854 20.9859 14.3977C21 14.1762 21 13.9784 21 13.5827C21 13.5059 21 13.4675 20.9979 13.4351C20.9653 12.9339 20.5661 12.5347 20.0649 12.5021C20.0325 12.5 19.9941 12.5 19.9173 12.5M4.08268 12.5C4.00591 12.5 3.96752 12.5 3.93511 12.5021C3.43395 12.5347 3.0347 12.9339 3.00211 13.4351C3 13.4675 3 13.5059 3 13.5827C3 13.9784 3 14.1762 3.01406 14.3977C3.19458 17.242 5.31032 19.7971 8 20.6495" stroke="#1C274C" stroke-width="1.5" stroke-linecap="round"/>
<path d="M6 20.5L5 22.5" stroke="#1C274C" stroke-width="1.5" stroke-linecap="round"/>
<path d="M18 20.5L19 22.5" stroke="#1C274C" stroke-width="1.5" stroke-linecap="round"/>
<path d="M2 12.5H14M22 12.5H18" stroke="#1C274C" stroke-width="1.5" stroke-linecap="round"/>
<path d="M2.25 13.5C2.25 13.9142 2.58579 14.25 3 14.25C3.41421 14.25 3.75 13.9142 3.75 13.5H2.25ZM6.34559 9.24156L5.6478 9.51651C5.72221 9.70535 5.86997 9.85596 6.05735 9.93396C6.24473 10.012 6.45572 10.0107 6.64215 9.93044L6.34559 9.24156ZM12.3063 6.67548L12.6029 7.36436C12.975 7.20417 13.1526 6.77744 13.0041 6.40053L12.3063 6.67548ZM3.75 13.5V4.88516H2.25V13.5H3.75ZM5.38516 3.25C6.05379 3.25 6.65506 3.65708 6.90338 4.27788L8.29609 3.72079C7.81998 2.5305 6.66715 1.75 5.38516 1.75V3.25ZM3.75 4.88516C3.75 3.98209 4.48209 3.25 5.38516 3.25V1.75C3.65366 1.75 2.25 3.15366 2.25 4.88516H3.75ZM6.90338 4.27788L7.2825 5.22568L8.67521 4.66859L8.29609 3.72079L6.90338 4.27788ZM7.04337 8.96661C6.80167 8.35321 6.78638 7.64092 7.05701 6.97451L5.66723 6.41014C5.24692 7.44515 5.26959 8.55665 5.6478 9.51651L7.04337 8.96661ZM12.0098 5.9866L6.04903 8.55268L6.64215 9.93044L12.6029 7.36436L12.0098 5.9866ZM10.2824 5.56753C10.9039 5.83307 11.367 6.33741 11.6086 6.95043L13.0041 6.40053C12.6258 5.44029 11.887 4.62189 10.8717 4.18813L10.2824 5.56753ZM7.05701 6.97451C7.31118 6.3486 7.76827 5.8838 8.30713 5.62147L7.65058 4.27279C6.78337 4.69496 6.06253 5.43671 5.66723 6.41014L7.05701 6.97451ZM8.30713 5.62147C8.91452 5.32579 9.62506 5.28672 10.2824 5.56753L10.8717 4.18813C9.79386 3.72768 8.62874 3.79661 7.65058 4.27279L8.30713 5.62147Z" fill="#1C274C"/>
</svg>
