<svg width="24" height="25" viewBox="0 0 24 25" fill="none" xmlns="http://www.w3.org/2000/svg">
<path d="M19 20.5V19M5 20.5V19" stroke="black" stroke-width="1.5" stroke-linecap="round"/>
<path d="M2 15.5C2 14.5681 2 14.1022 2.15224 13.7346C2.35523 13.2446 2.74458 12.8552 3.23463 12.6522C3.60218 12.5 4.06812 12.5 5 12.5H19C19.9319 12.5 20.3978 12.5 20.7654 12.6522C21.2554 12.8552 21.6448 13.2446 21.8478 13.7346C22 14.1022 22 14.5681 22 15.5C22 16.4319 22 16.8978 21.8478 17.2654C21.6448 17.7554 21.2554 18.1448 20.7654 18.3478C20.3978 18.5 19.9319 18.5 19 18.5H5C4.06812 18.5 3.60218 18.5 3.23463 18.3478C2.74458 18.1448 2.35523 17.7554 2.15224 17.2654C2 16.8978 2 16.4319 2 15.5Z" stroke="black" stroke-width="1.5"/>
<path d="M21 12.5C21 8.72876 21 6.84315 19.8284 5.67157C18.6569 4.5 16.7712 4.5 13 4.5H11C7.22876 4.5 5.34315 4.5 4.17157 5.67157C3 6.84315 3 8.72876 3 12.5" stroke="black" stroke-width="1.5"/>
<path d="M18.5 12.5V11C18.5 9.11438 18.5 8.17157 17.9142 7.58579C17.3284 7 16.3856 7 14.5 7H9.5C7.61438 7 6.67157 7 6.08579 7.58579C5.5 8.17157 5.5 9.11438 5.5 11V12.5" stroke="black" stroke-width="1.5"/>
<path d="M12 7.5V12.5" stroke="black" stroke-width="1.5"/>
</svg>
