<svg width="24" height="25" viewBox="0 0 24 25" fill="none" xmlns="http://www.w3.org/2000/svg">
<g clip-path="url(#clip0_259_104)">
<path d="M13 10.5H17" stroke="black" stroke-width="1.5"/>
<path d="M3 7.5H21" stroke="black" stroke-width="1.5"/>
<path d="M17 12.5V5.57692C17 4.42977 15.9927 3.5 14.75 3.5C13.5073 3.5 12.5 4.42977 12.5 5.57692M12.5 5.57692V12.5M12.5 5.57692C12.5 4.42977 11.4927 3.5 10.25 3.5C9.00725 3.5 8 4.42977 8 5.57692" stroke="black" stroke-width="1.5"/>
<mask id="mask0_259_104" style="mask-type:alpha" maskUnits="userSpaceOnUse" x="-4" y="8" width="31" height="17">
<path d="M27 8.98633V24.0957H-3.01184V8.98633H27Z" fill="black"/>
</mask>
<g mask="url(#mask0_259_104)">
<path d="M3.09005 21.4368C2.54707 21.4368 2.0041 21.2493 1.59012 20.8744C1.17615 20.4994 0.633178 20.3119 0.0902085 20.3119C-0.452754 20.3119 -0.995731 20.4994 -1.40971 20.8744C-1.82368 21.2493 -2.36665 21.4368 -2.90962 21.4368C-3.45259 21.4368 -3.99556 21.2493 -4.40954 20.8744C-4.82351 20.4994 -5.36648 20.3119 -5.90946 20.3119C-6.45242 20.3119 -6.99539 20.4994 -7.40937 20.8744C-7.82335 21.2493 -8.36631 21.4368 -8.90929 21.4368C-9.45225 21.4368 -9.99523 21.2493 -10.4092 20.8744C-10.8232 20.4994 -11.3661 20.3119 -11.9091 20.3119C-12.4521 20.3119 -12.995 20.4994 -13.409 20.8744C-13.823 21.2493 -14.366 21.4368 -14.9089 21.4368M39.079 21.4473C38.5361 21.4473 37.9931 21.2598 37.5791 20.8849C37.1651 20.5099 36.6222 20.3224 36.0792 20.3224C35.5362 20.3224 34.9933 20.5099 34.5793 20.8849C34.1653 21.2598 33.6223 21.4473 33.0794 21.4473C32.5364 21.4473 31.9934 21.2598 31.5795 20.8849C31.1655 20.5099 30.6225 20.3224 30.0795 20.3224C29.5366 20.3224 28.9936 20.5099 28.5796 20.8849C28.1656 21.2598 27.6227 21.4473 27.0797 21.4473C26.5367 21.4473 25.9938 21.2598 25.5798 20.8849C25.1658 20.5099 24.6228 20.3224 24.0799 20.3224C23.5369 20.3224 22.9939 20.5099 22.58 20.8849C22.166 21.2598 21.623 21.4473 21.08 21.4473M21.0808 21.4541C20.5378 21.4541 19.9949 21.2666 19.5809 20.8916C19.1669 20.5166 18.6239 20.3291 18.081 20.3291C17.538 20.3291 16.995 20.5166 16.581 20.8916C16.1671 21.2666 15.6241 21.4541 15.0811 21.4541C14.5382 21.4541 13.9952 21.2666 13.5812 20.8916C13.1672 20.5166 12.6243 20.3291 12.0813 20.3291C11.5383 20.3291 10.9954 20.5166 10.5814 20.8916C10.1674 21.2666 9.62444 21.4541 9.08147 21.4541C8.5385 21.4541 7.99553 21.2666 7.58155 20.8916C7.16758 20.5166 6.62461 20.3291 6.08164 20.3291C5.53867 20.3291 4.9957 20.5166 4.58172 20.8916C4.16774 21.2666 3.62477 21.4541 3.08181 21.4541" stroke="black" stroke-width="1.5"/>
<path d="M3.09005 17.6869C2.54707 17.6869 2.0041 17.4995 1.59012 17.1245C1.17615 16.7495 0.633178 16.562 0.0902085 16.562C-0.452754 16.562 -0.995731 16.7495 -1.40971 17.1245C-1.82368 17.4995 -2.36665 17.6869 -2.90962 17.6869C-3.45259 17.6869 -3.99556 17.4995 -4.40954 17.1245C-4.82351 16.7495 -5.36648 16.562 -5.90946 16.562C-6.45242 16.562 -6.99539 16.7495 -7.40937 17.1245C-7.82335 17.4995 -8.36631 17.6869 -8.90929 17.6869C-9.45225 17.6869 -9.99523 17.4995 -10.4092 17.1245C-10.8232 16.7495 -11.3661 16.562 -11.9091 16.562C-12.4521 16.562 -12.995 16.7495 -13.409 17.1245C-13.823 17.4995 -14.366 17.6869 -14.9089 17.6869M39.079 17.6974C38.5361 17.6974 37.9931 17.51 37.5791 17.135C37.1651 16.76 36.6222 16.5725 36.0792 16.5725C35.5362 16.5725 34.9933 16.76 34.5793 17.135C34.1653 17.51 33.6223 17.6974 33.0794 17.6974C32.5364 17.6974 31.9934 17.51 31.5795 17.135C31.1655 16.76 30.6225 16.5725 30.0795 16.5725C29.5366 16.5725 28.9936 16.76 28.5796 17.135C28.1656 17.51 27.6227 17.6974 27.0797 17.6974C26.5367 17.6974 25.9938 17.51 25.5798 17.135C25.1658 16.76 24.6228 16.5725 24.0799 16.5725C23.5369 16.5725 22.9939 16.76 22.58 17.135C22.166 17.51 21.623 17.6974 21.08 17.6974M21.0808 17.7042C20.5378 17.7042 19.9949 17.5167 19.5809 17.1417C19.1669 16.7668 18.6239 16.5793 18.081 16.5793C17.538 16.5793 16.995 16.7668 16.581 17.1417C16.1671 17.5167 15.6241 17.7042 15.0811 17.7042C14.5382 17.7042 13.9952 17.5167 13.5812 17.1417C13.1672 16.7668 12.6243 16.5793 12.0813 16.5793C11.5383 16.5793 10.9954 16.7668 10.5814 17.1417C10.1674 17.5167 9.62444 17.7042 9.08147 17.7042C8.5385 17.7042 7.99553 17.5167 7.58155 17.1417C7.16758 16.7668 6.62461 16.5793 6.08164 16.5793C5.53867 16.5793 4.9957 16.7668 4.58172 17.1417C4.16774 17.5167 3.62477 17.7042 3.08181 17.7042" stroke="black" stroke-width="1.5"/>
<path d="M3.09005 13.9372C2.54707 13.9372 2.0041 13.7497 1.59012 13.3747C1.17615 12.9997 0.633178 12.8123 0.0902085 12.8123C-0.452754 12.8123 -0.995731 12.9997 -1.40971 13.3747C-1.82368 13.7497 -2.36665 13.9372 -2.90962 13.9372C-3.45259 13.9372 -3.99556 13.7497 -4.40954 13.3747C-4.82351 12.9997 -5.36648 12.8123 -5.90946 12.8123C-6.45242 12.8123 -6.99539 12.9997 -7.40937 13.3747C-7.82335 13.7497 -8.36631 13.9372 -8.90929 13.9372C-9.45225 13.9372 -9.99523 13.7497 -10.4092 13.3747C-10.8232 12.9997 -11.3661 12.8123 -11.9091 12.8123C-12.4521 12.8123 -12.995 12.9997 -13.409 13.3747C-13.823 13.7497 -14.366 13.9372 -14.9089 13.9372M39.079 13.9477C38.5361 13.9477 37.9931 13.7602 37.5791 13.3852C37.1651 13.0102 36.6222 12.8228 36.0792 12.8228C35.5362 12.8228 34.9933 13.0102 34.5793 13.3852C34.1653 13.7602 33.6223 13.9477 33.0794 13.9477C32.5364 13.9477 31.9934 13.7602 31.5795 13.3852C31.1655 13.0102 30.6225 12.8228 30.0795 12.8228C29.5366 12.8228 28.9936 13.0102 28.5796 13.3852C28.1656 13.7602 27.6227 13.9477 27.0797 13.9477C26.5367 13.9477 25.9938 13.7602 25.5798 13.3852C25.1658 13.0102 24.6228 12.8228 24.0799 12.8228C23.5369 12.8228 22.9939 13.0102 22.58 13.3852C22.166 13.7602 21.623 13.9477 21.08 13.9477M21.0808 13.9544C20.5378 13.9544 19.9949 13.767 19.5809 13.392C19.1669 13.017 18.6239 12.8295 18.081 12.8295C17.538 12.8295 16.995 13.017 16.581 13.392C16.1671 13.767 15.6241 13.9544 15.0811 13.9544C14.5382 13.9544 13.9952 13.767 13.5812 13.392C13.1672 13.017 12.6243 12.8295 12.0813 12.8295C11.5383 12.8295 10.9954 13.017 10.5814 13.392C10.1674 13.767 9.62444 13.9544 9.08147 13.9544C8.5385 13.9544 7.99553 13.767 7.58155 13.392C7.16758 13.017 6.62461 12.8295 6.08164 12.8295C5.53867 12.8295 4.9957 13.017 4.58172 13.392C4.16774 13.767 3.62477 13.9544 3.08181 13.9544" stroke="black" stroke-width="1.5"/>
</g>
</g>
<defs>
<clipPath id="clip0_259_104">
<rect width="24" height="24" fill="white" transform="translate(0 0.5)"/>
</clipPath>
</defs>
</svg>
