<svg width="24" height="25" viewBox="0 0 24 25" fill="none" xmlns="http://www.w3.org/2000/svg">
<path d="M7.00005 12.5H6.00005C4.11443 12.5 3.17162 12.5 2.58584 13.0858C2.11429 13.5573 2.02233 14.2602 2.00439 15.5M12 17.5V18.5C12 20.3856 12 21.3284 11.4143 21.9142C10.8285 22.5 9.88567 22.5 8.00005 22.5H6.00005C4.11443 22.5 3.17162 22.5 2.58584 21.9142C2.11429 21.4427 2.02233 20.7398 2.00439 19.5" stroke="#1C274C" stroke-width="1.5" stroke-linecap="round"/>
<path d="M12 7.5H11C9.11438 7.5 8.17157 7.5 7.58579 8.08579C7 8.67157 7 9.61438 7 11.5V13.5C7 15.3856 7 16.3284 7.58579 16.9142C8.17157 17.5 9.11438 17.5 11 17.5H13C14.8856 17.5 15.8284 17.5 16.4142 16.9142C17 16.3284 17 15.3856 17 13.5V12.5" stroke="#1C274C" stroke-width="1.5"/>
<path d="M15 2.50439C13.7602 2.52233 13.0573 2.61429 12.5858 3.08584C12 3.67162 12 4.61443 12 6.50005V8.50005C12 10.3857 12 11.3285 12.5858 11.9143C13.1716 12.5 14.1144 12.5 16 12.5H18C19.8856 12.5 20.8284 12.5 21.4142 11.9143C22 11.3285 22 10.3857 22 8.50005V6.50005C22 4.61443 22 3.67162 21.4142 3.08584C20.9427 2.61429 20.2398 2.52233 19 2.50439" stroke="#1C274C" stroke-width="1.5" stroke-linecap="round"/>
</svg>
