<svg width="24" height="25" viewBox="0 0 24 25" fill="none" xmlns="http://www.w3.org/2000/svg">
<path d="M2 22.5L13.6111 22.4999V6.25412C13.6111 4.77786 13.6111 4.03972 13.3142 3.5281C13.0538 3.07951 12.644 2.7425 12.1605 2.57919C11.6089 2.39294 10.9061 2.55307 9.50057 2.87331L6.75614 3.49863C5.81235 3.71367 5.34045 3.82119 4.9882 4.08138C4.6775 4.31089 4.43353 4.62272 4.28243 4.98349C4.11111 5.3925 4.11111 5.88814 4.11111 6.87944V22.5M13.6048 5.18357H15.5111C16.6934 5.18357 17.2847 5.18357 17.7362 5.41948C18.1334 5.62701 18.4564 5.95814 18.6588 6.36543C18.8889 6.82845 18.8889 7.43458 18.8889 8.64685V22.5H21M10.4444 12.7595H10.455" stroke="black" stroke-width="1.5" stroke-linecap="round" stroke-linejoin="round"/>
</svg>
