<svg width="24" height="25" viewBox="0 0 24 25" fill="none" xmlns="http://www.w3.org/2000/svg">
<path d="M12 22.5C13.5819 22.5 14.8778 21.2757 14.9918 19.723C16.1704 20.7403 17.9525 20.6896 19.0711 19.5711C20.1896 18.4525 20.2402 16.6705 19.2229 15.4918C20.7757 15.3778 22 14.0819 22 12.5C22 10.9181 20.7757 9.62224 19.223 9.50816C20.2403 8.32955 20.1896 6.54748 19.0711 5.42894C17.9525 4.31038 16.1705 4.25976 14.9918 5.27708C14.8778 3.72433 13.5819 2.5 12 2.5C10.4181 2.5 9.12224 3.72431 9.00816 5.27704C7.82955 4.25974 6.04749 4.31036 4.92894 5.42891C3.81038 6.54747 3.75977 8.32955 4.77708 9.50816C3.22433 9.62221 2 10.9181 2 12.5C2 14.0819 3.2243 15.3778 4.77703 15.4918C3.75974 16.6704 3.81037 18.4525 4.92891 19.5711C6.04747 20.6896 7.82955 20.7402 9.00816 19.7229C9.12221 21.2757 10.4181 22.5 12 22.5Z" stroke="black" stroke-width="1.5" stroke-linecap="square"/>
<path d="M12 14.5C10.8954 14.5 10 13.6046 10 12.5C10 11.3954 10.8954 10.5 12 10.5C13.1046 10.5 14 11.3954 14 12.5C14 13.6046 13.1046 14.5 12 14.5Z" stroke="black" stroke-width="1.5" stroke-linecap="square"/>
</svg>
