<svg width="32" height="32" viewBox="0 0 32 32" fill="none" xmlns="http://www.w3.org/2000/svg">
<path fill-rule="evenodd" clip-rule="evenodd" d="M16 24C20.4183 24 24 20.4183 24 16C24 11.5817 20.4183 8 16 8C11.5817 8 8 11.5817 8 16C8 20.4183 11.5817 24 16 24ZM16 21.3333C18.9455 21.3333 21.3333 18.9455 21.3333 16C21.3333 13.0545 18.9455 10.6667 16 10.6667C13.0545 10.6667 10.6667 13.0545 10.6667 16C10.6667 18.9455 13.0545 21.3333 16 21.3333Z" fill="#737373"/>
<path d="M24 6.66675C23.2636 6.66675 22.6667 7.26371 22.6667 8.00008C22.6667 8.73645 23.2636 9.33341 24 9.33341C24.7364 9.33341 25.3333 8.73645 25.3333 8.00008C25.3333 7.26371 24.7364 6.66675 24 6.66675Z" fill="#737373"/>
<path fill-rule="evenodd" clip-rule="evenodd" d="M2.20529 5.70133C1.33334 7.41263 1.33334 9.65284 1.33334 14.1333V17.8666C1.33334 22.347 1.33334 24.5872 2.20529 26.2985C2.97228 27.8038 4.19612 29.0277 5.70142 29.7946C7.41272 30.6666 9.65293 30.6666 14.1333 30.6666H17.8667C22.3471 30.6666 24.5873 30.6666 26.2985 29.7946C27.8039 29.0277 29.0277 27.8038 29.7947 26.2985C30.6667 24.5872 30.6667 22.347 30.6667 17.8666V14.1333C30.6667 9.65284 30.6667 7.41263 29.7947 5.70133C29.0277 4.19603 27.8039 2.97219 26.2985 2.2052C24.5873 1.33325 22.3471 1.33325 17.8667 1.33325H14.1333C9.65293 1.33325 7.41272 1.33325 5.70142 2.2052C4.19612 2.97219 2.97228 4.19603 2.20529 5.70133ZM17.8667 3.99992H14.1333C11.8491 3.99992 10.2963 4.002 9.09612 4.10005C7.927 4.19557 7.32913 4.36871 6.91206 4.58121C5.90853 5.09255 5.09264 5.90844 4.5813 6.91197C4.3688 7.32904 4.19566 7.92691 4.10014 9.09602C4.00209 10.2963 4.00001 11.849 4.00001 14.1333V17.8666C4.00001 20.1509 4.00209 21.7035 4.10014 22.9038C4.19566 24.073 4.3688 24.6709 4.5813 25.0879C5.09264 26.0914 5.90853 26.9072 6.91206 27.4186C7.32913 27.6311 7.927 27.8043 9.09612 27.8998C10.2963 27.9978 11.8491 27.9999 14.1333 27.9999H17.8667C20.1509 27.9999 21.7036 27.9978 22.9039 27.8998C24.0731 27.8043 24.6709 27.6311 25.088 27.4186C26.0915 26.9072 26.9073 26.0914 27.4187 25.0879C27.6312 24.6709 27.8044 24.073 27.8999 22.9038C27.9979 21.7035 28 20.1509 28 17.8666V14.1333C28 11.849 27.9979 10.2963 27.8999 9.09602C27.8044 7.92691 27.6312 7.32904 27.4187 6.91197C26.9073 5.90844 26.0915 5.09255 25.088 4.58121C24.6709 4.36871 24.0731 4.19557 22.9039 4.10005C21.7036 4.002 20.1509 3.99992 17.8667 3.99992Z" fill="#737373"/>
</svg>
