<svg width="32" height="32" viewBox="0 0 32 32" fill="none" xmlns="http://www.w3.org/2000/svg">
<path d="M16 27.3333C16.8657 27.3333 17.8187 27.3108 18.7976 27.274C19.1411 27.2611 19.3127 27.2547 19.6071 27.2248C23.9773 26.7823 27.7031 22.9139 27.9812 18.5303C28 18.2349 28 17.9712 28 17.4436C28 17.3412 28 17.29 27.9972 17.2468C27.9537 16.5785 27.4215 16.0463 26.7532 16.0028C26.71 16 26.6588 16 26.5564 16M5.44357 16C5.34121 16 5.29003 16 5.24681 16.0028C4.5786 16.0463 4.04627 16.5785 4.00281 17.2468C4 17.29 4 17.3412 4 17.4436C4 17.9712 4 18.2349 4.01875 18.5303C4.25944 22.3227 7.08043 25.7295 10.6667 26.866" stroke="#1C274C" stroke-width="2" stroke-linecap="round"/>
<path d="M7.99999 26.6667L6.66666 29.3334" stroke="#1C274C" stroke-width="2" stroke-linecap="round"/>
<path d="M24 26.6667L25.3333 29.3334" stroke="#1C274C" stroke-width="2" stroke-linecap="round"/>
<path d="M2.66666 16H18.6667M29.3333 16H24" stroke="#1C274C" stroke-width="2" stroke-linecap="round"/>
<path d="M3 17.3334C3 17.8856 3.44772 18.3334 4 18.3334C4.55228 18.3334 5 17.8856 5 17.3334H3ZM8.46079 11.6554L7.5304 12.022C7.62961 12.2738 7.82663 12.4746 8.07647 12.5786C8.32631 12.6826 8.60763 12.6809 8.8562 12.5739L8.46079 11.6554ZM16.4084 8.23399L16.8039 9.1525C17.3 8.93891 17.5368 8.36994 17.3388 7.86739L16.4084 8.23399ZM5 17.3334V5.8469H3V17.3334H5ZM7.18021 3.66669C8.07172 3.66669 8.87341 4.20946 9.20451 5.03719L11.0615 4.29441C10.4266 2.70735 8.88953 1.66669 7.18021 1.66669V3.66669ZM5 5.8469C5 4.64281 5.97612 3.66669 7.18021 3.66669V1.66669C4.87155 1.66669 3 3.53823 3 5.8469H5ZM9.20451 5.03719L9.71 6.30093L11.5669 5.55814L11.0615 4.29441L9.20451 5.03719ZM9.39116 11.2888C9.06889 10.471 9.04851 9.52125 9.40935 8.6327L7.55631 7.88021C6.99589 9.26022 7.02612 10.7422 7.5304 12.022L9.39116 11.2888ZM16.0131 7.31549L8.06537 10.7369L8.8562 12.5739L16.8039 9.1525L16.0131 7.31549ZM13.7099 6.75673C14.5385 7.11078 15.156 7.78323 15.4781 8.60059L17.3388 7.86739C16.8344 6.58707 15.8493 5.49587 14.4956 4.91753L13.7099 6.75673ZM9.40935 8.6327C9.74824 7.79815 10.3577 7.17842 11.0762 6.82865L10.2008 5.03041C9.04449 5.5933 8.08337 6.5823 7.55631 7.88021L9.40935 8.6327ZM11.0762 6.82865C11.886 6.43441 12.8334 6.38231 13.7099 6.75673L14.4956 4.91753C13.0585 4.30359 11.505 4.3955 10.2008 5.03041L11.0762 6.82865Z" fill="#1C274C"/>
</svg>
