<svg width="32" height="32" viewBox="0 0 32 32" fill="none" xmlns="http://www.w3.org/2000/svg">
<path d="M25.3334 26.6667V24.6667M6.66669 26.6667V24.6667" stroke="black" stroke-width="2" stroke-linecap="round"/>
<path d="M2.66669 20C2.66669 18.7575 2.66669 18.1363 2.86967 17.6461C3.14033 16.9928 3.65946 16.4736 4.31286 16.2029C4.80293 16 5.42418 16 6.66669 16H25.3334C26.5759 16 27.1971 16 27.6872 16.2029C28.3406 16.4736 28.8598 16.9928 29.1304 17.6461C29.3334 18.1363 29.3334 18.7575 29.3334 20C29.3334 21.2425 29.3334 21.8637 29.1304 22.3539C28.8598 23.0072 28.3406 23.5264 27.6872 23.7971C27.1971 24 26.5759 24 25.3334 24H6.66669C5.42418 24 4.80293 24 4.31286 23.7971C3.65946 23.5264 3.14033 23.0072 2.86967 22.3539C2.66669 21.8637 2.66669 21.2425 2.66669 20Z" stroke="black" stroke-width="2"/>
<path d="M28 16C28 10.9717 28 8.45751 26.4379 6.89541C24.8759 5.33331 22.3616 5.33331 17.3333 5.33331H14.6667C9.63835 5.33331 7.1242 5.33331 5.56209 6.89541C4 8.45751 4 10.9717 4 16" stroke="black" stroke-width="2"/>
<path d="M24.6666 16V14C24.6666 11.4859 24.6666 10.2288 23.8856 9.44774C23.1045 8.66669 21.8474 8.66669 19.3333 8.66669H12.6666C10.1525 8.66669 8.89541 8.66669 8.11437 9.44774C7.33331 10.2288 7.33331 11.4859 7.33331 14V16" stroke="black" stroke-width="2"/>
<path d="M16 9.33331V16" stroke="black" stroke-width="2"/>
</svg>
