<svg width="32" height="32" viewBox="0 0 32 32" fill="none" xmlns="http://www.w3.org/2000/svg">
<path d="M9.3334 16H8.00006C5.4859 16 4.22882 16 3.44778 16.7811C2.81905 17.4097 2.69644 18.3469 2.67252 20M16 22.6667V24C16 26.5141 16 27.7712 15.2191 28.5523C14.438 29.3333 13.1809 29.3333 10.6667 29.3333H8.00006C5.4859 29.3333 4.22882 29.3333 3.44778 28.5523C2.81905 27.9236 2.69644 26.9864 2.67252 25.3333" stroke="#1C274C" stroke-width="2" stroke-linecap="round"/>
<path d="M16 9.33331H14.6667C12.1525 9.33331 10.8954 9.33331 10.1144 10.1144C9.33334 10.8954 9.33334 12.1525 9.33334 14.6666V17.3333C9.33334 19.8474 9.33334 21.1045 10.1144 21.8856C10.8954 22.6666 12.1525 22.6666 14.6667 22.6666H17.3333C19.8475 22.6666 21.1045 22.6666 21.8856 21.8856C22.6667 21.1045 22.6667 19.8474 22.6667 17.3333V16" stroke="#1C274C" stroke-width="2"/>
<path d="M20 2.67255C18.3469 2.69647 17.4097 2.81908 16.7811 3.44781C16 4.22885 16 5.48593 16 8.00009V10.6668C16 13.1809 16 14.438 16.7811 15.2191C17.5621 16 18.8192 16 21.3333 16H24C26.5141 16 27.7712 16 28.5523 15.2191C29.3333 14.438 29.3333 13.1809 29.3333 10.6668V8.00009C29.3333 5.48593 29.3333 4.22885 28.5523 3.44781C27.9236 2.81908 26.9864 2.69647 25.3333 2.67255" stroke="#1C274C" stroke-width="2" stroke-linecap="round"/>
</svg>
